<svg width="606" height="408" viewBox="0 0 606 408" fill="none" xmlns="http://www.w3.org/2000/svg">
<path d="M99.1567 44.5254C89.0695 41.5195 82.1082 30.1451 80.2642 13.6636C80.1654 12.7788 79.3882 12.7788 79.2893 13.6636C77.4454 30.1451 70.4841 41.5195 60.3969 44.5254C59.8574 44.687 59.873 45.9518 60.4125 46.1134C70.4962 49.1279 77.454 60.5079 79.2928 76.998C79.3899 77.8827 80.1654 77.8572 80.2642 76.9724C82.1082 60.488 89.0695 49.1137 99.1567 46.1078C99.6962 45.949 99.6962 44.687 99.1567 44.5254Z" fill="#AEA8FF" stroke="#AEA8FF" stroke-width="4" stroke-linecap="round" stroke-linejoin="round"/>
<path d="M551.478 298.449C538.475 294.497 529.501 279.542 527.123 257.872C526.996 256.709 525.994 256.709 525.867 257.872C523.49 279.542 514.515 294.497 501.512 298.449C500.816 298.662 500.836 300.325 501.532 300.537C514.531 304.501 523.501 319.463 525.871 341.144C525.996 342.307 526.996 342.274 527.123 341.111C529.501 319.437 538.475 304.482 551.478 300.53C552.174 300.321 552.174 298.662 551.478 298.449Z" fill="#AEA8FF" stroke="#AEA8FF" stroke-width="4" stroke-linecap="round" stroke-linejoin="round"/>
<path d="M508.381 134.935C542.745 132.633 557.335 95.6213 545.143 73.5839C532.952 51.5466 521.796 68.7038 532.62 76.3193C545.373 85.2925 605.73 79.1042 603.949 18.5328" stroke="#222222" stroke-width="4" stroke-linecap="round" stroke-linejoin="round"/>
<path d="M58.4472 310.069L2 322.131M58.4472 328.403L18.4035 347.701M75.3331 339.017L58.4472 358.315" stroke="#222222" stroke-width="4" stroke-linecap="round" stroke-linejoin="round"/>
<path d="M156.636 124.211L122.131 281.122C117.224 319.09 153.973 349.631 194.385 362.885L360.381 394.552C402.598 402.605 442.341 372.329 446.036 329.77C446.138 328.59 446.231 327.425 446.36 326.247C447.483 315.922 453.261 262.043 455.508 226.122C457.745 190.347 458.732 136.39 458.906 126.026C458.926 124.841 458.981 123.68 459.018 122.496C460.393 78.8072 412.162 31.294 368.666 35.0702L222.148 61.3908C188.261 64.3328 160.997 90.4773 156.636 124.211Z" fill="#3582E2"/>
<path d="M130.026 110.46C129.778 112.022 129.546 113.565 129.26 115.121C127.526 124.526 120.964 160.613 117.789 185.114C114.571 209.95 111.697 247.067 110.988 256.525C110.874 258.043 110.712 259.54 110.56 261.055C106.59 300.739 133.225 337.153 172.367 345.31C173.243 345.492 174.114 345.669 174.987 345.865C182.904 347.64 225.291 357.096 254.324 362.657C284.315 368.401 331.005 375.862 338.635 377.074C339.368 377.191 340.075 377.318 340.807 377.445C379.88 384.248 416.39 356.012 419.671 316.528C419.749 315.595 419.819 314.686 419.914 313.755C420.879 304.286 426.582 247.713 428.972 210.201C431.474 170.938 432.968 111.384 433.2 101.697C433.223 100.77 433.266 99.8754 433.306 98.9487C435.003 58.9993 401.731 26.3379 361.89 28.6904C360.62 28.7654 359.369 28.8493 358.097 28.8928C348.765 29.2125 306.823 30.7342 279.411 33.1405C253.148 35.446 215.147 40.7374 205.405 42.1183C203.827 42.342 202.262 42.5106 200.679 42.6949C164.62 46.8909 135.723 74.6063 130.026 110.46Z" fill="#3394FF"/>
<path d="M206.744 133.757C205.853 195.195 229.695 215.19 237.245 218.91C238.231 219.396 239.212 218.702 239.356 217.613L250.444 133.994C250.576 132.999 251.424 132.257 252.427 132.257H283.651C284.846 132.257 285.775 133.287 285.64 134.474C284.03 148.642 281.411 172.718 281.075 179.67C281.025 180.699 281.863 181.416 282.888 181.312C314.335 178.109 331.725 149.212 337.059 133.651C337.343 132.823 338.112 132.257 338.986 132.257H372.733C374.132 132.257 375.103 133.642 374.577 134.938C366.835 154.01 348.006 187.894 323.798 198.144C321.953 198.925 321.808 202.078 323.602 202.969C351.832 217 365.453 252.727 369.36 272.014C369.623 273.309 368.548 274.451 367.234 274.319C353.727 272.961 331.519 270.671 326.479 269.944C325.827 269.85 325.401 269.354 325.299 268.704C320.074 235.172 292.093 222.467 276.836 219.877C275.719 219.688 274.718 220.517 274.623 221.645L271.103 263.451C271.011 264.54 270.024 265.352 268.935 265.264C180.98 258.168 167.53 189.281 172.824 134.017C172.92 133.008 173.756 132.245 174.769 132.231C184.436 132.096 200.373 131.941 205.312 132.134C206.188 132.169 206.757 132.881 206.744 133.757Z" fill="white" stroke="white" stroke-width="4" stroke-linejoin="round"/>
<path d="M197.122 232.333C211.75 244.248 231.921 252.448 259.319 254.653C260.409 254.741 261.362 253.926 261.454 252.837L264.974 211.031C265.069 209.903 266.07 209.074 267.186 209.263C282.444 211.853 310.425 224.559 315.65 258.09C315.751 258.74 316.178 259.236 316.829 259.33C321.87 260.057 344.078 262.347 357.585 263.705C358.899 263.837 359.973 262.695 359.711 261.4C355.804 242.113 342.183 206.387 313.953 192.356C312.159 191.464 312.304 188.311 314.149 187.53C338.357 177.28 357.186 143.396 364.927 124.324C365.454 123.028 364.483 121.643 363.084 121.643H329.337C328.463 121.643 327.694 122.209 327.41 123.037C322.076 138.598 304.686 167.495 273.238 170.698C272.214 170.802 271.376 170.085 271.426 169.056C271.762 162.104 274.381 138.028 275.991 123.86C276.126 122.673 275.197 121.643 274.002 121.643H242.777C241.775 121.643 240.927 122.386 240.795 123.38L229.707 206.999C229.563 208.088 228.582 208.782 227.596 208.296C220.046 204.577 196.204 184.581 197.095 123.143C197.108 122.267 196.539 121.555 195.663 121.521C190.724 121.327 174.787 121.482 165.12 121.617C164.107 121.631 163.27 122.402 163.174 123.411C161.384 142.106 161.739 162.361 166.398 181.254" stroke="#222222" stroke-width="4" stroke-linejoin="round"/>
<path d="M312.701 361.693C339.236 366.035 369.052 371.052 387.964 352.526C406.876 334 407.941 320.202 409.674 307.658C419.806 234.325 430.489 111.781 423.665 79.9392C419.323 59.6761 407.262 21.5623 362.394 18.1851C326.499 15.4833 225.859 24.4563 172.306 37.4833C153.008 42.1776 131.298 57.5533 123.579 85.7287C113.929 120.948 99.9383 243.485 99.9383 260.86C99.9383 285.947 121.166 338.535 189.192 352.526C243.613 363.719 315.113 378.096 346.955 383.886C376.385 389.236 425.306 377.035 433.797 336.123C444.411 284.982 457.437 128.667 446.823 96.8251" stroke="#222222" stroke-width="4" stroke-linejoin="round"/>
<path d="M550.963 287.238C535.217 283.021 524.351 267.063 521.473 243.939C521.318 242.698 520.105 242.698 519.951 243.939C517.072 267.063 506.206 283.021 490.46 287.238C489.618 287.465 489.642 289.239 490.485 289.466C506.225 293.695 517.086 309.661 519.956 332.797C520.108 334.038 521.318 334.002 521.473 332.761C524.351 309.633 535.217 293.675 550.963 289.458C551.805 289.235 551.805 287.465 550.963 287.238Z" stroke="#1D1D1F" stroke-width="4" stroke-linecap="round" stroke-linejoin="round"/>
<path d="M94.6952 33.5254C84.608 30.5195 77.6467 19.1451 75.8028 2.66357C75.7039 1.77881 74.9268 1.77881 74.8279 2.66357C72.9839 19.1451 66.0226 30.5195 55.9354 33.5254C55.396 33.687 55.4116 34.9518 55.951 35.1134C66.0348 38.1279 72.9926 49.5079 74.8313 65.998C74.9285 66.8827 75.7039 66.8572 75.8028 65.9724C77.6467 49.488 84.608 38.1137 94.6952 35.1078C95.2347 34.949 95.2347 33.687 94.6952 33.5254Z" stroke="#1D1D1F" stroke-width="4" stroke-linecap="round" stroke-linejoin="round"/>
<path d="M459.367 21.0791C459.367 25.3424 455.911 28.7984 451.648 28.7984C447.385 28.7984 443.928 25.3424 443.928 21.0791C443.928 16.8159 447.385 13.3599 451.648 13.3599C453.163 13.3599 454.576 13.7964 455.768 14.5506" stroke="#222222" stroke-width="4" stroke-linecap="round"/>
<path d="M32.0518 157.726C29.1829 154.572 29.4136 149.69 32.5671 146.821C35.7206 143.952 40.6027 144.183 43.4716 147.336C46.3405 150.49 46.1098 155.372 42.9563 158.241C41.8355 159.261 40.4964 159.889 39.1069 160.133" stroke="#222222" stroke-width="4" stroke-linecap="round"/>
<path d="M168.724 401.942C165.933 405.165 161.058 405.515 157.835 402.724C154.612 399.933 154.263 395.058 157.054 391.835C159.845 388.612 164.72 388.263 167.942 391.054C169.088 392.046 169.87 393.301 170.278 394.651" stroke="#222222" stroke-width="4" stroke-linecap="round"/>
</svg>
